<?xml version="1.0" encoding="utf-8"?>
<!-- Generator: Adobe Illustrator 28.3.0, SVG Export Plug-In . SVG Version: 6.00 Build 0)  -->
<svg version="1.1" xmlns="http://www.w3.org/2000/svg" xmlns:xlink="http://www.w3.org/1999/xlink" x="0px" y="0px"
	 viewBox="0 0 543.47 338.82" style="enable-background:new 0 0 543.47 338.82;" xml:space="preserve">
<style type="text/css">
	.st0{fill:#FFFFFF;}
	.st1{display:none;}
	.st2{fill:#263A96;}
	.st3{fill:#FFFFFF;stroke:#263A96;stroke-width:5.3927;stroke-miterlimit:10;}
	.st4{clip-path:url(#XMLID_00000129168015544810772860000013271575253253320105_);fill:#263A96;}
	.st5{fill:#FFFFFF;stroke:#4059A8;stroke-width:6.3195;stroke-miterlimit:10;}
	.st6{fill:#FFFFFF;stroke:#4059A8;stroke-width:6.3195;stroke-linecap:round;stroke-miterlimit:10;}
	
		.st7{clip-path:url(#XMLID_00000044159849234446496910000011904370548830304446_);fill:none;stroke:#263A96;stroke-width:6.3195;stroke-linecap:round;stroke-miterlimit:10;}
	
		.st8{clip-path:url(#XMLID_00000044159849234446496910000011904370548830304446_);fill:none;stroke:#4059A8;stroke-width:6.3195;stroke-linecap:round;stroke-miterlimit:10;}
	.st9{clip-path:url(#XMLID_00000044159849234446496910000011904370548830304446_);fill:#6B85C3;}
	.st10{clip-path:url(#XMLID_00000044159849234446496910000011904370548830304446_);fill:#263A96;}
	
		.st11{clip-path:url(#XMLID_00000120525471437599151400000004984643520948752266_);fill:#6B85C3;stroke:#4059A8;stroke-width:6.3195;stroke-miterlimit:10;}
	
		.st12{clip-path:url(#XMLID_00000120525471437599151400000004984643520948752266_);fill:#263A96;stroke:#6B85C3;stroke-width:3.7465;stroke-miterlimit:10;}
	
		.st13{clip-path:url(#XMLID_00000120525471437599151400000004984643520948752266_);fill:#263A96;stroke:#6B85C3;stroke-width:2.8098;stroke-miterlimit:10;}
	
		.st14{clip-path:url(#XMLID_00000120525471437599151400000004984643520948752266_);fill:#263A96;stroke:#4059A8;stroke-width:5.7226;stroke-linecap:round;stroke-miterlimit:10;}
	
		.st15{clip-path:url(#XMLID_00000120525471437599151400000004984643520948752266_);fill:#263A96;stroke:#4059A8;stroke-width:1.5989;stroke-miterlimit:10;}
	.st16{fill:#263A96;stroke:#4059A8;stroke-width:5.6197;stroke-miterlimit:10;}
	.st17{font-family:'LuckiestGuy-Regular';}
	.st18{font-size:83.6401px;}
	.st19{clip-path:url(#XMLID_00000066487112704406896550000009457408702480882834_);fill:#FFD96E;}
	.st20{clip-path:url(#XMLID_00000066487112704406896550000009457408702480882834_);fill:#354181;}
	
		.st21{clip-path:url(#XMLID_00000066487112704406896550000009457408702480882834_);fill:none;stroke:#354181;stroke-width:2;stroke-miterlimit:10;}
	.st22{clip-path:url(#XMLID_00000024003283650949086570000003958895300633543043_);fill:#FFD96E;}
	.st23{fill:#FFD96E;}
</style>
<g id="Layer_9">
</g>
<g id="Layer_6" class="st1">
</g>
<g id="Layer_7">
</g>
<g id="Layer_8">
</g>
<g id="Layer_5">
</g>
<g id="Layer_3">
</g>
<g id="Layer_4">
</g>
<g id="Layer_2">
</g>
<g id="Layer_1">
	<path class="st0" d="M146.91,108.09c0,0,18.23-41.67,56.26-43.23c38.03-1.56,45.32,11.98,45.32,11.98s23.96-34.38,67.72-36.98
		s83.98,26.86,89.38,33.86c16.88,21.88,14.28,44.8,14.28,44.8s32.85,2.11,36.23,19.09c3.84,19.24-14.36,49.67-14.36,49.67
		s50.01-2.08,58.86,31.77s-19.27,65.63-44.8,71.36c-25.52,5.73-53.65,4.17-72.93-2.08c-19.27-6.25-20.84-15.63-20.84-15.63
		s-9.9,23.44-47.92,26.57c-38.03,3.13-63.55-17.71-63.55-17.71s-11.98,16.15-39.59,15.63s-36.98-5.73-47.92-11.46
		c-10.94-5.73-13.02-14.59-13.02-14.59s-26.04,23.96-79.18,3.65s-8.33-81.26,20.32-85.95c0,0-2.6-54.69,23.44-68.76
		S146.91,108.09,146.91,108.09z"/>
	<text transform="matrix(1 0 0 1 169.583 159.9086)"><tspan x="0" y="0" class="st2 st17 st18">ALISA</tspan><tspan x="-50.62" y="87.91" class="st2 st17 st18">NGUYEN</tspan></text>
	<g>
		<defs>
			<polygon id="XMLID_00000004519810433244880580000009990067081714274190_" points="425.14,57.08 437.45,57.08 452.23,67.69 
				418.77,128.84 411.8,128.84 403.48,124.6 			"/>
		</defs>
		<use xlink:href="#XMLID_00000004519810433244880580000009990067081714274190_"  style="overflow:visible;fill:#FFFFFF;"/>
		<clipPath id="XMLID_00000029032251419274070520000014027844838566776234_">
			<use xlink:href="#XMLID_00000004519810433244880580000009990067081714274190_"  style="overflow:visible;"/>
		</clipPath>
		<polygon style="clip-path:url(#XMLID_00000029032251419274070520000014027844838566776234_);fill:#FFD96E;" points="434.58,71.58 
			453.2,68.5 420.69,131.62 407.38,133.42 		"/>
		<polygon style="clip-path:url(#XMLID_00000029032251419274070520000014027844838566776234_);fill:#354181;" points="425.14,57.08 
			440.19,69.68 411.03,128.84 397.23,125.83 		"/>
		
			<line style="clip-path:url(#XMLID_00000029032251419274070520000014027844838566776234_);fill:none;stroke:#354181;stroke-width:2;stroke-miterlimit:10;" x1="465.69" y1="66.91" x2="438.77" y2="70.34"/>
		
			<use xlink:href="#XMLID_00000004519810433244880580000009990067081714274190_"  style="overflow:visible;fill:none;stroke:#354181;stroke-width:3;stroke-miterlimit:10;"/>
	</g>
	<g>
		<defs>
			<circle id="XMLID_00000042696888221929556770000012567251714729072012_" cx="405.55" cy="149.71" r="15.13"/>
		</defs>
		<use xlink:href="#XMLID_00000042696888221929556770000012567251714729072012_"  style="overflow:visible;fill:#354181;"/>
		<clipPath id="XMLID_00000108273286637911762560000006457004247608001970_">
			<use xlink:href="#XMLID_00000042696888221929556770000012567251714729072012_"  style="overflow:visible;"/>
		</clipPath>
		<path style="clip-path:url(#XMLID_00000108273286637911762560000006457004247608001970_);fill:#FFD96E;" d="M410.78,136.18
			c0,0,6.31,9.22,3.51,15.38c-2.8,6.15-5.72,10.46-11.31,11.05s-9.54,0.53-9.54,0.53s15.45,5.6,23.32,0.97
			c8.18-4.81,10.91-11.86,5.92-18.88C417.69,138.21,410.78,136.18,410.78,136.18z"/>
		
			<use xlink:href="#XMLID_00000042696888221929556770000012567251714729072012_"  style="overflow:visible;fill:none;stroke:#263A96;stroke-width:3;stroke-miterlimit:10;"/>
	</g>
	<path class="st2" d="M103.86,169.63c-0.66-18.95-10.87-28.47-29.82-27.82c18.95-0.66,28.47-10.87,27.82-29.82
		c0.66,18.95,10.87,28.47,29.82,27.82C112.72,140.47,103.2,150.68,103.86,169.63z"/>
	<path class="st2" d="M487.48,256.18c-0.66-18.95-10.87-28.47-29.82-27.82c18.95-0.66,28.47-10.87,27.82-29.82
		c0.66,18.95,10.87,28.47,29.82,27.82C496.34,227.02,486.82,237.23,487.48,256.18z"/>
	<path class="st23" d="M146.2,128.69c-1.02-29.27-16.78-43.97-46.05-42.95c29.27-1.02,43.97-16.78,42.95-46.05
		c1.02,29.27,16.78,43.97,46.05,42.95C159.88,83.66,145.18,99.42,146.2,128.69z"/>
	<path class="st23" d="M439.82,274.67c-0.42-12.16-6.97-18.27-19.13-17.84c12.16-0.42,18.27-6.97,17.84-19.13
		c0.42,12.16,6.97,18.27,19.13,17.84C445.5,255.96,439.39,262.51,439.82,274.67z"/>
</g>
</svg>
