<?xml version="1.0" encoding="UTF-8"?>
<svg id="Layer_1" data-name="Layer 1" xmlns="http://www.w3.org/2000/svg" viewBox="0 0 501.13 259.65">
  <defs>
    <style>
      .cls-1, .cls-2 {
        stroke: #0c4a8b;
        stroke-miterlimit: 10;
        stroke-width: 3.66px;
      }

      .cls-1, .cls-3 {
        fill: #fff;
      }

      .cls-2 {
        fill: #f9b6b4;
      }

      .cls-4 {
        fill: #0c4a8b;
      }

      .cls-4, .cls-3 {
        stroke-width: 0px;
      }
    </style>
  </defs>
  <g>
    <path class="cls-2" d="M111.7,184.24h-43.29c.74-28.66,14.15-57.44,31.36-86.1h29.64c18.45,28.66,29.27,57.44,31.24,86.1h-48.95"/>
    <path class="cls-2" d="M167.77,98.14h35.42v44.28c7.99-.99,15.25-3.69,19.56-8v49.81h-54.98v-86.1Z"/>
    <path class="cls-2" d="M271.08,184.24h-40.22v-86.1h40.22v86.1Z"/>
    <path class="cls-2" d="M333.43,126.68c6.89,4.67,10.82,12.79,10.82,26.69,0,26.44-14.15,32.22-36.65,32.22-9.47,0-18.45-.37-28.41-3.2v-44.18c7.8,11.95,41.57,16.5,41.33,4.2-.12-6.27-5.9-5.41-10.46-4.55-3.81.86-8.49,2.09-12.42,2.09-12.05,0-18.2-9.35-18.08-20.91-.37-22.26,13.9-22.14,31.37-22.14,9.84,0,19.68.49,29.4,1.23v26.69c-6.79-6.99-41.33-20.54-41.2-7.99.12,4.67,2.83,6.27,6.15,6.15,9.47-.25,18.2-2.21,28.17,3.69Z"/>
    <path class="cls-2" d="M378.69,98.14h29.64c18.45,28.66,29.27,57.44,31.24,86.1h-43.17c3.08-4.67,3.57-13.04,2.95-22.26h-11.81c-.62,9.22-.12,17.59,3.07,22.26h-43.29c.74-28.66,14.15-57.44,31.37-86.1Z"/>
  </g>
  <g>
    <circle class="cls-4" cx="129.45" cy="136.13" r="25.81"/>
    <path class="cls-4" d="M95.16,132.4c9.14-18.03,28.24-28.75,48.21-22.78,2.62.81,5.14,1.76,7.53,3.23l-.76,1.84c-4.93-.78-10.02-1.18-14.98-.93-9.8.28-19.02,3.97-26.82,9.85-4.02,2.93-7.86,6.32-11.53,9.9,0,0-1.66-1.11-1.66-1.11h0Z"/>
    <path class="cls-3" d="M138.06,153.1h0c0-4.75-3.85-17.81-8.61-17.81h0c4.75,0,8.61-11.37,8.61-16.12h0c0,4.75,3.85,16.96,8.61,16.96h0c-4.75,0-8.61,12.21-8.61,16.96Z"/>
  </g>
  <path class="cls-1" d="M393.44,151.9h0c0-5.36-4.34-20.07-9.7-20.07h0c5.36,0,9.7-12.81,9.7-18.17h0c0,5.36,4.34,19.12,9.7,19.12h0c-5.36,0-9.7,13.76-9.7,19.12Z"/>
  <path class="cls-4" d="M439.57,125.3h0c0-7.96-6.45-29.8-14.41-29.8h0c7.96,0,14.41-19.02,14.41-26.98h0c0,7.96,6.45,28.39,14.41,28.39h0c-7.96,0-14.41,20.43-14.41,28.39Z"/>
</svg>