<?xml version="1.0" encoding="UTF-8"?>
<svg id="Layer_1" data-name="Layer 1" xmlns="http://www.w3.org/2000/svg" viewBox="0 0 200.66 216.67">
  <defs>
    <style>
      .cls-1 {
        fill: none;
        stroke: #231f20;
      }

      .cls-1, .cls-2 {
        stroke-miterlimit: 10;
        stroke-width: 1.86px;
      }

      .cls-2 {
        fill: #f9b6b4;
        stroke: #0c4a8b;
      }

      .cls-3 {
        fill: #fef8fb;
      }

      .cls-3, .cls-4, .cls-5 {
        stroke-width: 0px;
      }

      .cls-4 {
        fill: #0c4a8b;
      }

      .cls-5 {
        fill: #fff;
      }
    </style>
  </defs>
  <path class="cls-2" d="M199.73,166.35c0,77.46-74.55,40.65-74.55,40.65,0,0,27.02-11.31,24.07-38.14-2.95-26.83-22.05-30.71-33.39-33.02-8.38-1.72-16.23-.91-22.84.83-10.12,2.64-17.33,7.43-19.06,8.67l-48.51-44.62c3.98-11.42,8.98-21.88,14.8-31.15,7.94-12.62,17.43-23,27.98-30.45l10.69,15.59c1.67,2.44,4.94,3.31,7.64,2l3.15-1.52c1.95-.94,3.04-3.07,2.61-5.19l-4.21-20.92c4.26-1.37,8.66-2.27,13.13-2.7l.86,22.51c.11,2.92,2.54,5.23,5.5,5.23h1.03c3.36,0,6.31-2.18,7.21-5.36l6.01-20.92c3.46.83,6.85,1.96,10.18,3.36l-6.38,15.98c-1,2.51,0,5.38,2.38,6.74l1.8,1.03c2.07,1.18,4.64,1.11,6.61-.22l16.04-10.74c28.19,24.02,47.23,69.81,47.23,122.34Z"/>
  <path class="cls-1" d="M73.96,145.34c-.26.17-.39.28-.39.28"/>
  <ellipse class="cls-4" cx="124.29" cy="92.68" rx="28.84" ry="28.38"/>
  <path class="cls-4" d="M93.66,50.51l-3.35,1.61c-2.87,1.39-6.33.47-8.11-2.12l-11.33-16.54-3.25-4.74c-.84-1.21-.42-2.88.9-3.57l17.29-9.25c2.13-1.14,4.76.08,5.24,2.41l.92,4.51,4.46,22.18c.46,2.25-.7,4.51-2.77,5.51Z"/>
  <path class="cls-4" d="M131.07,10.04l-3.31,11.46-6.37,22.18c-.96,3.37-4.08,5.68-7.65,5.68h-1.1c-3.15,0-5.72-2.45-5.84-5.55l-.92-23.87-.46-12.21c-.12-3.29,2.37-6.13,5.72-6.51L122.46.05c5.68-.61,10.16,4.61,8.6,9.99Z"/>
  <path class="cls-4" d="M162.91,36.87l-2.67,1.78-17.01,11.39c-2.09,1.41-4.82,1.49-7.01.24l-1.91-1.1c-2.53-1.45-3.59-4.49-2.53-7.15l6.77-16.95,1.95-4.88c1.14-2.82,4.6-3.98,7.27-2.41l14.82,8.68c3.94,2.31,4.12,7.86.32,10.41Z"/>
  <path class="cls-2" d="M125.17,207S14.71,243.8,14.71,166.35c0-23.71,3.89-46.05,10.74-65.63l48.51,44.62c1.73-1.24,8.94-6.02,19.06-8.67,6.61-1.74,14.46-2.55,22.84-.83,11.34,2.31,30.44,6.19,33.39,33.02,2.95,26.83-24.07,38.14-24.07,38.14Z"/>
  <path class="cls-4" d="M93.02,136.67c-10.12,2.64-17.33,7.43-19.06,8.67l-48.51-44.62-16.96-15.59c-1.9-1.76-3.15-4.05-3.59-6.56L.06,50.4c-.6-3.44,3.1-6.04,6.22-4.4l23.08,12.23c2.25,1.2,4.24,2.86,5.8,4.86l5.09,6.47,52.77,67.11Z"/>
  <path class="cls-4" d="M78.94,83.88c12.65-11.74,29.56-19.87,47.05-19.96,11.22.17,22.28,4.07,31.51,10.37,4.34,2.98,8.36,6.34,11.75,10.41,0,0-1.33,1.31-1.33,1.31-6.35-4.74-13.38-8.79-20.76-11.63-15.58-6.15-29.96-5.4-45.52.34-7.41,2.8-14.67,6.39-21.52,10.61l-1.18-1.44h0Z"/>
  <path class="cls-5" d="M133.9,111.33h0c0-5.23-4.31-19.57-9.62-19.57h0c5.31,0,9.62-12.49,9.62-17.72h0c0,5.23,4.31,18.65,9.62,18.65h0c-5.31,0-9.62,13.42-9.62,18.65Z"/>
  <path class="cls-3" d="M41.67,104.69l12.7,14.25c.72.8.76,1.93.11,2.58l-.12.12c-.64.64-1.76.55-2.51-.18l-13.77-13.55,3.59-3.23Z"/>
  <path class="cls-3" d="M35.34,104.69l-13.2-12.99c-.78-.76-.83-1.94-.13-2.64l1.43-1.41c1.05-1.04,2.87-.88,3.95.33l11.74,13.27-3.79,3.43Z"/>
</svg>