<?xml version="1.0" encoding="UTF-8"?>
<svg id="Layer_1" data-name="Layer 1" xmlns="http://www.w3.org/2000/svg" viewBox="0 0 382.89 462.04">
  <defs>
    <style>
      .cls-1 {
        fill: #f9b6b4;
        stroke: #0c4a8b;
        stroke-width: 7.54px;
      }

      .cls-1, .cls-2 {
        stroke-miterlimit: 10;
      }

      .cls-2 {
        fill: none;
        stroke: #231f20;
        stroke-width: 2.96px;
      }

      .cls-3 {
        fill: #fef8fb;
      }

      .cls-3, .cls-4, .cls-5 {
        stroke-width: 0px;
      }

      .cls-4 {
        fill: #0c4a8b;
      }

      .cls-5 {
        fill: #fff;
      }
    </style>
  </defs>
  <path class="cls-1" d="M338.2,320.39c0,113.64-117.69,65.22-117.69,65.22,0,0,42.66-18.14,38.01-61.19-4.65-43.05-34.8-49.27-52.71-52.98-13.22-2.76-25.61-1.45-36.05,1.33-15.98,4.24-27.36,11.92-30.09,13.9l-76.57-71.59c6.28-18.32,14.17-35.1,23.36-49.98,12.54-20.25,27.51-36.91,44.17-48.86l16.87,25.02c2.64,3.91,7.8,5.31,12.07,3.2l4.98-2.43c3.08-1.51,4.8-4.92,4.12-8.33l-6.64-33.56c6.73-2.19,13.67-3.65,20.72-4.33l1.36,36.11c.18,4.68,4,8.39,8.69,8.39h1.63c5.31,0,9.96-3.5,11.38-8.6l9.49-33.56c5.45,1.33,10.82,3.14,16.07,5.4l-10.08,25.64c-1.57,4.03,0,8.63,3.77,10.82l2.85,1.66c3.26,1.9,7.32,1.78,10.44-.36l25.32-17.22c44.5,38.54,74.56,112,74.56,196.28Z"/>
  <path class="cls-2" d="M139.66,286.69c-.42.27-.62.44-.62.44"/>
  <circle class="cls-4" cx="219.11" cy="202.2" r="45.53"/>
  <path class="cls-4" d="M170.76,134.54l-5.28,2.58c-4.53,2.23-10,.75-12.8-3.4l-17.89-26.54-5.12-7.61c-1.32-1.95-.66-4.62,1.41-5.72l27.29-14.84c3.36-1.82,7.51.13,8.27,3.87l1.45,7.23,7.04,35.59c.72,3.62-1.1,7.23-4.37,8.83Z"/>
  <path class="cls-4" d="M229.81,69.61l-5.22,18.39-10.06,35.59c-1.51,5.41-6.45,9.12-12.07,9.12h-1.73c-4.97,0-9.02-3.93-9.21-8.9l-1.45-38.3-.72-19.59c-.19-5.28,3.74-9.84,9.02-10.44l17.86-1.92c8.96-.97,16.03,7.39,13.58,16.03Z"/>
  <path class="cls-4" d="M280.09,112.66l-4.21,2.86-26.85,18.27c-3.3,2.26-7.61,2.39-11.07.38l-3.02-1.76c-3.99-2.33-5.66-7.2-3.99-11.48l10.69-27.2,3.08-7.83c1.79-4.53,7.26-6.38,11.48-3.87l23.39,13.93c6.23,3.71,6.51,12.61.5,16.7Z"/>
  <path class="cls-1" d="M220.51,385.61s-174.38,59.05-174.38-65.22c0-38.04,6.14-73.88,16.96-105.3l76.57,71.59c2.73-1.99,14.11-9.66,30.09-13.9,10.44-2.79,22.83-4.09,36.05-1.33,17.91,3.71,48.06,9.93,52.71,52.98,4.65,43.05-38.01,61.19-38.01,61.19Z"/>
  <path class="cls-4" d="M169.75,272.78c-15.98,4.24-27.36,11.92-30.09,13.9l-76.57-71.59-26.77-25.02c-2.99-2.82-4.98-6.49-5.66-10.52l-7.65-45.18c-.95-5.51,4.89-9.69,9.81-7.06l36.43,19.63c3.56,1.93,6.7,4.6,9.16,7.8l8.03,10.38,83.3,107.67Z"/>
  <path class="cls-4" d="M147.5,188.1c19-17.98,45.24-31.27,71.74-31.93,18.68-.55,37.16,6.08,52.4,16.59,6.83,4.77,13.15,10.15,18.46,16.64,0,0-2.13,2.06-2.13,2.06-9.98-7.57-21.05-14.04-32.71-18.64-25.24-9.94-46.75-8.71-71.92.53-11.69,4.5-23.14,10.26-33.94,17.03,0,0-1.9-2.28-1.9-2.28h0Z"/>
  <path class="cls-5" d="M234.29,232.12h0c0-8.39-6.8-31.4-15.18-31.4h0c8.39,0,15.18-20.05,15.18-28.43h0c0,8.39,6.8,29.92,15.18,29.92h0c-8.39,0-15.18,21.53-15.18,29.92Z"/>
  <path class="cls-3" d="M88.69,221.48l20.05,22.86c1.13,1.29,1.21,3.09.17,4.14l-.19.19c-1,1.02-2.78.89-3.96-.29l-21.73-21.73,5.66-5.18Z"/>
  <path class="cls-3" d="M78.7,221.48l-20.84-20.84c-1.22-1.22-1.31-3.12-.2-4.23l2.26-2.26c1.67-1.67,4.54-1.42,6.24.54l18.53,21.3-5.98,5.5Z"/>
</svg>