<?xml version="1.0" encoding="UTF-8"?>
<svg id="Layer_1" data-name="Layer 1" xmlns="http://www.w3.org/2000/svg" viewBox="0 0 501.1265 259.646">
  <defs>
    <style>
      .cls-1, .cls-2 {
        stroke: #0c4a8b;
        stroke-miterlimit: 10;
        stroke-width: 3.664px;
      }

      .cls-1, .cls-3 {
        fill: #fff;
      }

      .cls-2 {
        fill: #f9b6b4;
      }

      .cls-4 {
        fill: #0c4a8b;
      }

      .cls-4, .cls-3 {
        stroke-width: 0px;
      }
    </style>
  </defs>
  <g>
    <path class="cls-2" d="M111.6992,184.2388h-43.2947c.7371-28.658,14.1453-57.4401,31.363-86.0981h29.6432c18.4486,28.658,29.2734,57.4401,31.2414,86.0981h-48.9529"/>
    <path class="cls-2" d="M167.7725,98.1408h35.423v44.2799c7.9934-.9852,15.2498-3.6902,19.5554-7.9958v49.814h-54.9783v-86.0981Z"/>
    <path class="cls-2" d="M271.0811,184.2388h-40.22v-86.0981h40.22v86.0981Z"/>
    <path class="cls-2" d="M333.4326,126.6771c6.8866,4.673,10.8225,12.7904,10.8225,26.6901,0,26.4444-14.1453,32.2242-36.6538,32.2242-9.47,0-18.4486-.3697-28.4099-3.1964v-44.1759c7.795,11.9549,41.5725,16.5007,41.3268,4.2017-.124-6.2736-5.9038-5.4124-10.4551-4.5513-3.8142.8611-8.4872,2.092-12.4231,2.092-12.0533,0-18.2029-9.3483-18.0812-20.9103-.3673-22.2628,13.8996-22.1388,31.3654-22.1388,9.8397,0,19.6794.4914,29.3951,1.2285v26.6901c-6.7913-6.9878-41.3268-20.5405-41.2027-7.9934.1217,4.673,2.8291,6.2712,6.1495,6.1495,9.47-.2457,18.2029-2.2136,28.1666,3.6902Z"/>
    <path class="cls-2" d="M378.6858,98.1408h29.6408c18.4486,28.658,29.2734,57.4401,31.2414,86.0981h-43.1731c3.0771-4.673,3.5685-13.0385,2.9531-22.2628h-11.8077c-.6154,9.2243-.124,17.5898,3.0748,22.2628h-43.2947c.7371-28.658,14.1453-57.4401,31.3654-86.0981Z"/>
  </g>
  <g>
    <circle class="cls-4" cx="129.4512" cy="136.1337" r="25.8142"/>
    <path class="cls-4" d="M95.1603,132.403c9.1366-18.0307,28.2399-28.7535,48.215-22.7827,2.6202.811,5.14,1.7608,7.5269,3.2259l-.756,1.8444c-4.9337-.7795-10.0246-1.1824-14.9845-.9305-9.8017.283-19.0211,3.9672-26.8181,9.852-4.0174,2.928-7.8582,6.3213-11.5262,9.8988,0,0-1.6571-1.1079-1.6571-1.1079h0Z"/>
    <path class="cls-3" d="M138.0605,153.0973h0c0-4.7547-3.8545-17.8055-8.6092-17.8055h0c4.7547,0,8.6092-11.3669,8.6092-16.1216h0c0,4.7547,3.8545,16.9635,8.6092,16.9635h0c-4.7547,0-8.6092,12.2088-8.6092,16.9635Z"/>
  </g>
  <path class="cls-1" d="M393.4442,151.9049h0c0-5.3586-4.344-20.0668-9.7026-20.0668h0c5.3586,0,9.7026-12.8105,9.7026-18.1691h0c0,5.3586,4.344,19.118,9.7026,19.118h0c-5.3586,0-9.7026,13.7594-9.7026,19.118Z"/>
  <path class="cls-4" d="M439.568,125.3013h0c0-7.9572-6.4506-29.798-14.4078-29.798h0c7.9572,0,14.4078-19.0228,14.4078-26.9801h0c0,7.9572,6.4506,28.389,14.4078,28.389h0c-7.9572,0-14.4078,20.4318-14.4078,28.389Z"/>
</svg>