<?xml version="1.0" encoding="UTF-8"?>
<svg xmlns="http://www.w3.org/2000/svg" xmlns:xlink="http://www.w3.org/1999/xlink" viewBox="0 0 671.68 839.52">
  <defs>
    <style>
      .cls-1 {
        stroke-width: 3px;
      }

      .cls-1, .cls-2, .cls-3, .cls-4, .cls-5, .cls-6, .cls-7, .cls-8, .cls-9, .cls-10, .cls-11, .cls-12, .cls-13 {
        stroke-miterlimit: 10;
      }

      .cls-1, .cls-14, .cls-5, .cls-7, .cls-11, .cls-13 {
        fill: #263a96;
      }

      .cls-1, .cls-5 {
        stroke: #6b85c3;
      }

      .cls-15 {
        clip-path: url(#clippath);
      }

      .cls-16, .cls-14 {
        stroke-width: 0px;
      }

      .cls-16, .cls-4 {
        fill: #6b85c3;
      }

      .cls-2, .cls-3, .cls-4, .cls-6, .cls-7, .cls-11, .cls-12, .cls-13 {
        stroke: #4059a8;
      }

      .cls-2, .cls-3, .cls-4, .cls-6, .cls-9, .cls-12 {
        stroke-width: 6.75px;
      }

      .cls-2, .cls-17, .cls-6 {
        fill: #fff;
      }

      .cls-2, .cls-7, .cls-9, .cls-12 {
        stroke-linecap: round;
      }

      .cls-3, .cls-9, .cls-10, .cls-12 {
        fill: none;
      }

      .cls-18 {
        clip-path: url(#clippath-1);
      }

      .cls-19 {
        clip-path: url(#clippath-2);
      }

      .cls-5 {
        stroke-width: 4px;
      }

      .cls-7 {
        stroke-width: 6.11px;
      }

      .cls-8, .cls-9, .cls-10 {
        stroke: #263a96;
      }

      .cls-8, .cls-10 {
        stroke-width: 8px;
      }

      .cls-8, .cls-20 {
        fill: #90a1d2;
      }

      .cls-11 {
        stroke-width: 1.71px;
      }

      .cls-13 {
        stroke-width: 6px;
      }
    </style>
    <clipPath id="clippath">
      <path class="cls-8" d="M195.37,315.73s-46.54-.78-101.75,56.88-48.58,58.77-51.9,76.46-13.27,99.49,0,126.02,132.65,70.75,204.5,60.8,207.82-51.61,231.03-77.76c23.21-26.15,73.39-156.05,19.01-199.43-54.38-43.38-177.05-62.18-220.73-53.33s-80.16,10.37-80.16,10.37Z"/>
    </clipPath>
    <clipPath id="clippath-1">
      <path class="cls-2" d="M287.2,498.15s2.25-5.24,23.21-17.22,74.11-28.45,83.84-32.19,30.69-6.36,57.27-5.61,38.93,7.86,58.39,22.46,49.78,78.98,49.78,78.98c0,0,16.47-2.25,37.43,6.74s22.83,29.94,20.96,44.17-12.35,19.84-38.55,27.32-84.59-2.25-84.96-1.12,2.62.75,0,16.09-18.34,15.35-44.17,19.09-67.37-2.99-79.72-7.49-12.35-9.73-15.72-26.2,1.12-32.56,13.1-57.64,11.6-46.41,11.6-46.41c0,0-63.26,4.87-85.01,2.62s-45.62-14.22-50.49-44.92,7.49-62.88,7.49-62.88c0,0-17.22,22.46-27.7,38.18s-31.07,55.4-35.93,56.89-5.99-10.85-12.73-16.09-37.43-11.98-42.3-14.97-5.99-5.99,1.87-19.46,95.07-78.98,109.67-85.71,35.84-11.23,35.84-11.23c0,0,11.69,26.2,28.16,20.59s16.09-17.22,19.46-20.59,5.58-1.5,7.84,0,2.26,4.12,2.26,4.12c0,0,14.6-14.6,28.82-1.5s38.93,55.02,46.04,53.9,24.33-44.17,38.55-65.13,18.34-26.33,22.83-24.77,3.74,29.26,12.35,40.11,26.57,18.34,25.08,25.08-31.07,36.68-46.04,42.3"/>
    </clipPath>
    <clipPath id="clippath-2">
      <rect class="cls-6" x="173.03" y="174.51" width="243.23" height="172.23" rx="38.73" ry="38.73" transform="translate(-13.19 15.72) rotate(-2.99)"/>
    </clipPath>
  </defs>
  <g id="Layer_5" data-name="Layer 5">
    <g>
      <path class="cls-20" d="M195.37,315.73s-46.54-.78-101.75,56.88-48.58,58.77-51.9,76.46-13.27,99.49,0,126.02,132.65,70.75,204.5,60.8,207.82-51.61,231.03-77.76c23.21-26.15,73.39-156.05,19.01-199.43-54.38-43.38-177.05-62.18-220.73-53.33s-80.16,10.37-80.16,10.37Z"/>
      <g class="cls-15">
        <path class="cls-14" d="M214.76,481.57c5.09,4.36,5.46,12.67,1.93,18.37s-10.06,9-16.67,10.18c5,.15,11.58,1.79,11.7,6.79.03,1.52-.63,2.97-1.33,4.32-2.07,4.02-4.57,7.81-7.45,11.3,7.34-1.44,15.3-1.17,21.86,2.42s11.32,11.02,10.27,18.43c2.03-6.72,10.44-8.66,17.42-9.46,4.17-.48,8.33-.96,12.5-1.44,5.38-.62,11.06-1.2,16.02.98s8.69,8.15,6.46,13.09c10.89-14.92,29.06-23.03,47.23-26.32,18.17-3.29,36.8-2.39,55.26-2.89.88-.02,1.9-.13,2.36-.87.33-.53.26-1.21.15-1.83-1.4-7.92-6.65-14.82-13.23-19.45s-14.39-7.22-22.26-8.88c-25.31-5.34-51.27-1.73-76.86-2.99-11.61-.57-20.02-2.63-30.27-7.14-10.22-4.49-23.96-1.9-35.1-4.62Z"/>
      </g>
      <path class="cls-10" d="M195.37,315.73s-46.54-.78-101.75,56.88-48.58,58.77-51.9,76.46-13.27,99.49,0,126.02,132.65,70.75,204.5,60.8,207.82-51.61,231.03-77.76c23.21-26.15,73.39-156.05,19.01-199.43-54.38-43.38-177.05-62.18-220.73-53.33s-80.16,10.37-80.16,10.37Z"/>
    </g>
  </g>
  <g id="Layer_3" data-name="Layer 3">
    <path class="cls-6" d="M285.23,342.84l-7.39,20.94s13.55,19.57,30.69,18.34c20.45-1.46,19.09-20.59,19.09-20.59l-4.24-19.62-38.15.93Z"/>
  </g>
  <g id="Layer_4" data-name="Layer 4">
    <g>
      <path class="cls-2" d="M144.01,519.83c-5.97,6.99-10.24,15.42-12.34,24.37-.99,4.21-1.49,8.71-.08,12.8s5.14,7.62,9.46,7.63c5.11.01,9-4.55,11.48-9.02,5.43-9.78,15-25.65,13.88-42.63"/>
      <path class="cls-2" d="M113.37,538.8s-7.32,6.83-11.19,4.62c-4.21-2.41-6.43-10.67.67-24.54,3.35-6.54,15.58-16.8,15.58-16.8,0,0-16.91-5.99-18.91-10.79s1.2-9.99,14.79-8.79,23.58-7.99,23.58-7.99l46.85,18.39c.96,3.85-.37,7.84-1.16,11.73-1.43,6.99-1.11,14.33.92,21.17.85,2.87,2.01,5.69,2.15,8.68s-.99,6.28-3.63,7.68c-3.17,1.68-7.09.07-9.99-2.04-8.11-5.9-13.07-15.91-12.84-25.94"/>
      <path class="cls-2" d="M125.99,512.2c-2.83,3.65-4.88,7.83-6.91,11.98-2.02,4.14-4.05,8.31-5.26,12.75s-1.57,9.23-.23,13.63c.68,2.24,1.9,4.46,3.93,5.64,2.45,1.42,5.57,1.04,8.2,0,.65-.26,4.38-3.31,5.05-3.52,0,0,8.46-24.28,11.81-29.31"/>
    </g>
    <g>
      <path class="cls-2" d="M494.44,317.4c5.01-4.63,11.18-7.8,17.37-10.69,10.17-4.75,21.49-8.98,32.39-6.3,3.06.75,6.12,2.15,7.98,4.7s2.1,6.44-.1,8.69c-.76.78-1.75,1.31-2.73,1.79-3.44,1.69-7.07,2.98-10.8,3.84-4.35.99-8.97,1.44-12.77,3.78-4.87,2.99-7.53,8.53-9.31,13.96"/>
      <path class="cls-2" d="M511.39,344.58c-1.44,2.79-2.52,6.16-1.19,9,1.11,2.38,3.74,3.79,6.35,4.06s5.23-.44,7.7-1.33c4.18-1.52,8.21-3.66,11.28-6.88s5.06-7.63,4.7-12.06c-.29-3.61-2.33-6.86-5.22-8.98-3.14-2.29-5.03-1.43-8.34.43-6.46,3.63-11.87,9.16-15.26,15.76Z"/>
      <path class="cls-2" d="M536.45,382.96c-.49.08-.93.13-1.33.15-1.06.05-2.16,0-3.11-.48-1.78-.89-2.56-3.14-2.26-5.1,1.14-7.52,15.08-18.61,21.58-10.35,6.77,8.61-9.74,13.79-14.92,15.71s-9.85,5.39-15.4,7.05c-5.92,1.77-12.15,2.54-18.33,2.2-1.43-.08-2.95-.24-4.1-1.09l-29.72-51.59c2.21-4.39,5.06-8.47,8.44-12.05,6.63-7.04,15.64-12.25,25.3-12.66,3.26-.14,7.07.6,8.58,3.5.62,1.2.74,2.62.57,3.96-.57,4.56-4.07,8.15-7.55,11.15-4.24,3.65-8.75,6.98-13.48,9.96"/>
      <path class="cls-2" d="M521.22,361.65c-.62,1.75-.96,3.66-.58,5.48s1.59,3.54,3.34,4.17c1.1.4,2.31.36,3.48.22,6.14-.71,11.96-3.86,15.91-8.61,3.57-4.29,7.4-18.87-1.98-19.2-7.53-.26-17.9,11.5-20.17,17.94Z"/>
    </g>
    <g>
      <path class="cls-17" d="M287.2,498.15s2.25-5.24,23.21-17.22,74.11-28.45,83.84-32.19,30.69-6.36,57.27-5.61,38.93,7.86,58.39,22.46,49.78,78.98,49.78,78.98c0,0,16.47-2.25,37.43,6.74s22.83,29.94,20.96,44.17-12.35,19.84-38.55,27.32-84.59-2.25-84.96-1.12,2.62.75,0,16.09-18.34,15.35-44.17,19.09-67.37-2.99-79.72-7.49-12.35-9.73-15.72-26.2,1.12-32.56,13.1-57.64,11.6-46.41,11.6-46.41c0,0-63.26,4.87-85.01,2.62s-45.62-14.22-50.49-44.92,7.49-62.88,7.49-62.88c0,0-17.22,22.46-27.7,38.18s-31.07,55.4-35.93,56.89-5.99-10.85-12.73-16.09-37.43-11.98-42.3-14.97-5.99-5.99,1.87-19.46,95.07-78.98,109.67-85.71,35.84-11.23,35.84-11.23c0,0,11.69,26.2,28.16,20.59s16.09-17.22,19.46-20.59,5.58-1.5,7.84,0,2.26,4.12,2.26,4.12c0,0,14.6-14.6,28.82-1.5s38.93,55.02,46.04,53.9,24.33-44.17,38.55-65.13,18.34-26.33,22.83-24.77,3.74,29.26,12.35,40.11,26.57,18.34,25.08,25.08-31.07,36.68-46.04,42.3"/>
      <g class="cls-18">
        <path class="cls-9" d="M268.59,360.98c1.73,11.24,8.35,21.76,18.08,27.65s22.45,6.79,32.66,1.79c10.21-5,17.38-15.97,17.28-27.34-.01-1.39-.25-2.99-1.45-3.69"/>
        <path class="cls-12" d="M378.59,519.47c.93-5.41,1.45-10.89,1.55-16.38"/>
        <path class="cls-16" d="M393.64,585.03c13.17-3.24,26.52-5.81,39.96-7.68,12.17-1.69,25.26-2.67,36.08,3.15,11.14,5.98,17.63,18,21.94,29.88,2.87,7.9,5.06,16.64,2.41,24.61-2.53,7.59-9.19,13.27-16.57,16.36s-15.49,3.92-23.48,4.43c-25.71,1.63-51.51.24-77.19-1.8-2.06-.16-4.19-.35-6-1.36-2.24-1.25-3.64-3.56-4.83-5.83-7.61-14.53-10.66-32.43-7.4-48.6,1.43-7.08,3.09-9.02,10.13-9.61,8.63-.72,16.46-1.46,24.95-3.55Z"/>
        <path class="cls-16" d="M520.48,557.13c13.92-3.24,24.25-10.1,38.45-11.97,12.86-1.69,26.69-2.67,38.12,3.15,11.77,5.98,18.62,18,23.18,29.88,3.03,7.9,5.35,16.64,2.54,24.61-2.67,7.59-9.7,13.27-17.5,16.36s-16.37,3.92-24.81,4.43c-27.16,1.63-54.43.24-81.56-1.8-2.18-.16-4.43-.35-6.34-1.36-2.36-1.25-3.85-3.56-5.1-5.83-8.04-14.53-11.27-32.43-7.81-48.6,1.51-7.08,4.25-4,11.69-4.59,9.12-.72,20.16-2.2,29.14-4.29Z"/>
        <path class="cls-14" d="M423.69,593.61c-16.14,2.57-32.02,9.63-40.14,21.48-8.12,11.85-6.2,28.78,6.92,36.99,8.17,5.11,19.03,6.22,29.25,5.76s20.32-2.3,30.55-2.34c8.88-.04,17.76,1.29,26.61.65s18.15-3.75,22.41-10.21c2.83-4.29,3.04-9.44,2.4-14.3-1.67-12.71-9.77-28.32-22.88-35.88-12.29-7.09-40.87-4.42-55.12-2.16Z"/>
        <path class="cls-12" d="M392.92,466.43c14.25-1.86,28.81-1.38,42.91,1.41,2.77.55,5.58,1.21,7.98,2.68,4.04,2.48,6.41,6.9,8.48,11.16,15.67,32.24,24.91,67.59,27.01,103.37"/>
        <path class="cls-12" d="M382.2,600.17c2.16-4.26,6.43-7,10.63-9.28,20.17-10.94,43.49-16,66.38-14.42,3.21.22,6.45.58,9.48,1.67,7.75,2.79,13.09,10,16.53,17.5,3.81,8.3,8.4,20.76,10.31,29.69"/>
        <path class="cls-12" d="M498.82,577.03c8.26-4.35,16.36-9.01,24.26-13.97,11.14-6.99,22.15-14.68,34.79-18.31,1.22-.35,2.72-1.77,1.68-2.51"/>
        <path class="cls-16" d="M161.26,453.53c-4.58,4.72-9.55,10.92-4.76,17.6,1.32,1.83,3.12,3.26,5.12,4.3,5.54,2.87,11.07,5.73,16.61,8.6,7.01,3.63,15.63,1.05,19.5-5.84,5.19-9.25,10.66-18.35,16.4-27.27,12.36-19.22,28.36-42.68,47.58-55.03,1.82,18.05-5.39,40.78-4.33,58.89.7,12.05,4.26,23.93,10.3,34.38,2.19,3.79,4.75,7.45,8.16,10.2,8.95,7.22,21.67,6.81,33.09,5.53,10.43-1.17,20.8-2.76,31.18-4.32,6.83-1.02,13.85-2.03,20.52.6,3.02,1.19,5.72,3.19,7.45,5.93,5.52,8.75-.94,18.9-7.55,26.09-7.91,8.61-16.91,16.66-27.86,20.74-22.18,8.26-47.13-1.51-66.5-15.1-8.7-6.1-17.04-13.23-22.09-22.58-7.14-13.22-6.85-29.15-11.48-43.42-.57-1.75-1.92-3.2-3.7-3.66-3.2-.82-4.94,1.88-6.29,4.23-6.98,12.06-15.72,22.98-24.43,33.85-4.05,5.06-8.63,10.46-14.99,11.73-3.99.8-8.12-.18-12-1.42-15.8-5.07-30.07-14.77-40.6-27.59-5.7-6.94-10.49-15.46-9.73-24.41.58-6.9,4.36-13.06,8.16-18.85,9.39-14.3,19.57-28.07,30.49-41.24,3.15-3.79,6.4-7.53,10.2-10.66,5.9-4.85,12.93-8.09,19.89-11.23,4.4-1.99,8.83-3.96,13.47-5.28,6.77-1.91,46.16-21.74,50.63-14s-18.08,17.87-39.37,38.84c-17.38,17.12-36.08,32.86-53.06,50.39Z"/>
        <path class="cls-14" d="M542.33,567.52c-14.57,7.41-27.5,19.03-31.58,32.8-4.08,13.77,2.96,29.29,17.97,33.07,9.34,2.35,20.02.06,29.6-3.53s18.63-8.45,28.35-11.63c8.44-2.77,17.29-4.25,25.52-7.58s16.11-9.15,18.18-16.61c1.37-4.95-.01-9.91-2.12-14.34-5.51-11.58-18.02-23.93-32.82-27.09-13.88-2.96-40.25,8.37-53.11,14.92Z"/>
      </g>
      <path class="cls-12" d="M287.2,498.15s2.25-5.24,23.21-17.22,74.11-28.45,83.84-32.19,30.69-6.36,57.27-5.61,38.93,7.86,58.39,22.46,49.78,78.98,49.78,78.98c0,0,16.47-2.25,37.43,6.74s22.83,29.94,20.96,44.17-12.35,19.84-38.55,27.32-84.59-2.25-84.96-1.12,2.62.75,0,16.09-18.34,15.35-44.17,19.09-67.37-2.99-79.72-7.49-12.35-9.73-15.72-26.2,1.12-32.56,13.1-57.64,11.6-46.41,11.6-46.41c0,0-63.26,4.87-85.01,2.62s-45.62-14.22-50.49-44.92,7.49-62.88,7.49-62.88c0,0-17.22,22.46-27.7,38.18s-31.07,55.4-35.93,56.89-5.99-10.85-12.73-16.09-37.43-11.98-42.3-14.97-5.99-5.99,1.87-19.46,95.07-78.98,109.67-85.71,35.84-11.23,35.84-11.23c0,0,11.69,26.2,28.16,20.59s16.09-17.22,19.46-20.59,5.58-1.5,7.84,0,2.26,4.12,2.26,4.12c0,0,14.6-14.6,28.82-1.5s38.93,55.02,46.04,53.9,24.33-44.17,38.55-65.13,18.34-26.33,22.83-24.77,3.74,29.26,12.35,40.11,26.57,18.34,25.08,25.08-31.07,36.68-46.04,42.3"/>
    </g>
    <path class="cls-2" d="M357.19,392.22l5.09,23.3s12.44,5.55,18.66,12.91,13.3,20.31,13.3,20.31"/>
    <line class="cls-2" x1="346.05" y1="422.21" x2="362.28" y2="415.52"/>
  </g>
  <g id="Layer_2" data-name="Layer 2">
    <g>
      <rect class="cls-17" x="173.03" y="174.51" width="243.23" height="172.23" rx="38.73" ry="38.73" transform="translate(-13.19 15.72) rotate(-2.99)"/>
      <g class="cls-19">
        <path class="cls-4" d="M226.04,332.52l131.1-7.71,18.39-1.08s14.97,0,23.21-3.74,14.22-8.23,15.35-16.84,1.9-50.94,1.9-50.94l1.1,85-86.41,7.78,26.47-20.18"/>
        <circle class="cls-5" cx="340.72" cy="282.18" r="9.73"/>
        <polygon class="cls-1" points="221.39 218.3 165.93 293.78 165.18 270.58 206.77 219.09 221.39 218.3"/>
        <polygon class="cls-1" points="252.27 216.64 174.16 325.97 173.41 306.88 238.44 217.38 252.27 216.64"/>
        <circle class="cls-5" cx="384.33" cy="280" r="9.73"/>
        <line class="cls-7" x1="161.48" y1="221.52" x2="326.48" y2="212.65"/>
        <line class="cls-7" x1="362.83" y1="209.5" x2="527.83" y2="200.64"/>
        <circle class="cls-11" cx="206.23" cy="201.13" r="8.31"/>
        <circle class="cls-11" cx="232.11" cy="199.61" r="8.31"/>
        <circle class="cls-11" cx="256.79" cy="198.17" r="8.31"/>
      </g>
      <rect class="cls-3" x="173.03" y="174.51" width="243.23" height="172.23" rx="38.73" ry="38.73" transform="translate(-13.19 15.72) rotate(-2.99)"/>
    </g>
    <line class="cls-13" x1="346.05" y1="326.48" x2="316.84" y2="346.35"/>
    <line class="cls-13" x1="333.06" y1="325.38" x2="303.86" y2="345.25"/>
    <line class="cls-13" x1="294.98" y1="328.15" x2="265.77" y2="348.03"/>
    <line class="cls-13" x1="268.29" y1="329.07" x2="239.09" y2="348.94"/>
    <line class="cls-13" x1="314.44" y1="327.56" x2="285.23" y2="347.43"/>
  </g>
</svg>